<svg width="24" height="24" viewBox="0 0 24 24" fill="none" xmlns="http://www.w3.org/2000/svg">
  <path d="M12 2C6.477 2 2 6.477 2 12C2 14.136 2.64 16.126 3.736 17.79L2.5 21.5L6.21 20.264C7.874 21.36 9.864 22 12 22C17.523 22 22 17.523 22 12C22 6.477 17.523 2 12 2Z" fill="currentColor"/>
  <path d="M8 9H16M8 13H14M8 17H11" stroke="white" stroke-width="1.5" stroke-linecap="round" fill="none"/>
  <path d="M17 4L18.5 5.5L20 4L18.5 2.5L17 4Z" fill="currentColor"/>
  <path d="M20 8L20.707 8.707L22 8L20.707 7.293L20 8Z" fill="currentColor"/>
</svg>
